<mxfile host="app.diagrams.net" agent="Mozilla/5.0 (Windows NT 10.0; Win64; x64) AppleWebKit/537.36 (KHTML, like Gecko) Chrome/131.0.0.0 Safari/537.36 Edg/131.0.0.0" version="26.0.4">
  <diagram name="第 1 页" id="-VyE4IkB_Dckl9D_wgdk">
    <mxGraphModel dx="1426" dy="755" grid="1" gridSize="10" guides="1" tooltips="1" connect="1" arrows="1" fold="1" page="1" pageScale="1" pageWidth="1169" pageHeight="827" math="0" shadow="0">
      <root>
        <mxCell id="0" />
        <mxCell id="1" parent="0" />
        <mxCell id="6bcThNhCs2LeFuaMLMQY-1" value="" style="ellipse;whiteSpace=wrap;html=1;aspect=fixed;strokeWidth=2;fillColor=#f8cecc;strokeColor=#b85450;" vertex="1" parent="1">
          <mxGeometry x="320" y="280" width="40" height="40" as="geometry" />
        </mxCell>
        <mxCell id="6bcThNhCs2LeFuaMLMQY-2" value="" style="ellipse;whiteSpace=wrap;html=1;aspect=fixed;strokeWidth=2;fillColor=#f8cecc;strokeColor=#b85450;" vertex="1" parent="1">
          <mxGeometry x="320" y="220" width="40" height="40" as="geometry" />
        </mxCell>
        <mxCell id="6bcThNhCs2LeFuaMLMQY-3" value="" style="ellipse;whiteSpace=wrap;html=1;aspect=fixed;fillColor=#f8cecc;strokeColor=#b85450;strokeWidth=2;" vertex="1" parent="1">
          <mxGeometry x="320" y="160" width="40" height="40" as="geometry" />
        </mxCell>
        <mxCell id="6bcThNhCs2LeFuaMLMQY-6" value="" style="ellipse;whiteSpace=wrap;html=1;aspect=fixed;strokeWidth=2;fillColor=#f8cecc;strokeColor=#b85450;" vertex="1" parent="1">
          <mxGeometry x="320" y="340" width="40" height="40" as="geometry" />
        </mxCell>
        <mxCell id="6bcThNhCs2LeFuaMLMQY-8" value="" style="ellipse;whiteSpace=wrap;html=1;aspect=fixed;fillColor=#dae8fc;strokeColor=#6c8ebf;strokeWidth=2;" vertex="1" parent="1">
          <mxGeometry x="480" y="310" width="40" height="40" as="geometry" />
        </mxCell>
        <mxCell id="6bcThNhCs2LeFuaMLMQY-9" value="" style="ellipse;whiteSpace=wrap;html=1;aspect=fixed;fillColor=#dae8fc;strokeColor=#6c8ebf;strokeWidth=2;" vertex="1" parent="1">
          <mxGeometry x="480" y="250" width="40" height="40" as="geometry" />
        </mxCell>
        <mxCell id="6bcThNhCs2LeFuaMLMQY-10" value="" style="ellipse;whiteSpace=wrap;html=1;aspect=fixed;fillColor=#dae8fc;strokeColor=#6c8ebf;strokeWidth=2;" vertex="1" parent="1">
          <mxGeometry x="480" y="190" width="40" height="40" as="geometry" />
        </mxCell>
        <mxCell id="6bcThNhCs2LeFuaMLMQY-50" value="" style="endArrow=none;html=1;rounded=0;exitX=0.991;exitY=0.4;exitDx=0;exitDy=0;entryX=0.106;entryY=0.182;entryDx=0;entryDy=0;exitPerimeter=0;entryPerimeter=0;strokeWidth=2;" edge="1" parent="1" source="6bcThNhCs2LeFuaMLMQY-3" target="6bcThNhCs2LeFuaMLMQY-10">
          <mxGeometry width="50" height="50" relative="1" as="geometry">
            <mxPoint x="380" y="230" as="sourcePoint" />
            <mxPoint x="430" y="180" as="targetPoint" />
          </mxGeometry>
        </mxCell>
        <mxCell id="6bcThNhCs2LeFuaMLMQY-51" value="" style="endArrow=none;html=1;rounded=0;exitX=0.997;exitY=0.573;exitDx=0;exitDy=0;exitPerimeter=0;entryX=0.101;entryY=0.187;entryDx=0;entryDy=0;entryPerimeter=0;strokeWidth=2;" edge="1" parent="1" source="6bcThNhCs2LeFuaMLMQY-3" target="6bcThNhCs2LeFuaMLMQY-9">
          <mxGeometry width="50" height="50" relative="1" as="geometry">
            <mxPoint x="380" y="240" as="sourcePoint" />
            <mxPoint x="430" y="190" as="targetPoint" />
          </mxGeometry>
        </mxCell>
        <mxCell id="6bcThNhCs2LeFuaMLMQY-52" value="" style="endArrow=none;html=1;rounded=0;exitX=0.927;exitY=0.753;exitDx=0;exitDy=0;exitPerimeter=0;entryX=0.108;entryY=0.178;entryDx=0;entryDy=0;entryPerimeter=0;strokeWidth=2;" edge="1" parent="1" source="6bcThNhCs2LeFuaMLMQY-3" target="6bcThNhCs2LeFuaMLMQY-8">
          <mxGeometry width="50" height="50" relative="1" as="geometry">
            <mxPoint x="410" y="270" as="sourcePoint" />
            <mxPoint x="460" y="220" as="targetPoint" />
          </mxGeometry>
        </mxCell>
        <mxCell id="6bcThNhCs2LeFuaMLMQY-53" value="" style="endArrow=none;html=1;rounded=0;exitX=0.997;exitY=0.406;exitDx=0;exitDy=0;exitPerimeter=0;entryX=0.035;entryY=0.314;entryDx=0;entryDy=0;entryPerimeter=0;strokeWidth=2;" edge="1" parent="1" source="6bcThNhCs2LeFuaMLMQY-2" target="6bcThNhCs2LeFuaMLMQY-10">
          <mxGeometry width="50" height="50" relative="1" as="geometry">
            <mxPoint x="380" y="270" as="sourcePoint" />
            <mxPoint x="430" y="220" as="targetPoint" />
          </mxGeometry>
        </mxCell>
        <mxCell id="6bcThNhCs2LeFuaMLMQY-54" value="" style="endArrow=none;html=1;rounded=0;exitX=0.991;exitY=0.56;exitDx=0;exitDy=0;exitPerimeter=0;entryX=0.019;entryY=0.371;entryDx=0;entryDy=0;entryPerimeter=0;strokeWidth=2;" edge="1" parent="1" source="6bcThNhCs2LeFuaMLMQY-2" target="6bcThNhCs2LeFuaMLMQY-9">
          <mxGeometry width="50" height="50" relative="1" as="geometry">
            <mxPoint x="400" y="270" as="sourcePoint" />
            <mxPoint x="480" y="261" as="targetPoint" />
          </mxGeometry>
        </mxCell>
        <mxCell id="6bcThNhCs2LeFuaMLMQY-55" value="" style="endArrow=none;html=1;rounded=0;exitX=0.958;exitY=0.7;exitDx=0;exitDy=0;exitPerimeter=0;entryX=0.013;entryY=0.367;entryDx=0;entryDy=0;entryPerimeter=0;strokeWidth=2;" edge="1" parent="1" source="6bcThNhCs2LeFuaMLMQY-2" target="6bcThNhCs2LeFuaMLMQY-8">
          <mxGeometry width="50" height="50" relative="1" as="geometry">
            <mxPoint x="400" y="270" as="sourcePoint" />
            <mxPoint x="450" y="220" as="targetPoint" />
          </mxGeometry>
        </mxCell>
        <mxCell id="6bcThNhCs2LeFuaMLMQY-56" value="" style="endArrow=none;html=1;rounded=0;exitX=0.981;exitY=0.374;exitDx=0;exitDy=0;exitPerimeter=0;entryX=0;entryY=0.554;entryDx=0;entryDy=0;entryPerimeter=0;strokeWidth=2;" edge="1" parent="1" source="6bcThNhCs2LeFuaMLMQY-1" target="6bcThNhCs2LeFuaMLMQY-10">
          <mxGeometry width="50" height="50" relative="1" as="geometry">
            <mxPoint x="390" y="300" as="sourcePoint" />
            <mxPoint x="440" y="250" as="targetPoint" />
          </mxGeometry>
        </mxCell>
        <mxCell id="6bcThNhCs2LeFuaMLMQY-57" value="" style="endArrow=none;html=1;rounded=0;exitX=1;exitY=0.5;exitDx=0;exitDy=0;entryX=0.01;entryY=0.593;entryDx=0;entryDy=0;entryPerimeter=0;strokeWidth=2;" edge="1" parent="1" source="6bcThNhCs2LeFuaMLMQY-1" target="6bcThNhCs2LeFuaMLMQY-9">
          <mxGeometry width="50" height="50" relative="1" as="geometry">
            <mxPoint x="390" y="320" as="sourcePoint" />
            <mxPoint x="440" y="270" as="targetPoint" />
          </mxGeometry>
        </mxCell>
        <mxCell id="6bcThNhCs2LeFuaMLMQY-58" value="" style="endArrow=none;html=1;rounded=0;exitX=0.988;exitY=0.633;exitDx=0;exitDy=0;exitPerimeter=0;entryX=0.013;entryY=0.614;entryDx=0;entryDy=0;entryPerimeter=0;strokeWidth=2;" edge="1" parent="1" source="6bcThNhCs2LeFuaMLMQY-1" target="6bcThNhCs2LeFuaMLMQY-8">
          <mxGeometry width="50" height="50" relative="1" as="geometry">
            <mxPoint x="390" y="330" as="sourcePoint" />
            <mxPoint x="440" y="280" as="targetPoint" />
          </mxGeometry>
        </mxCell>
        <mxCell id="6bcThNhCs2LeFuaMLMQY-59" value="" style="endArrow=none;html=1;rounded=0;exitX=0.952;exitY=0.282;exitDx=0;exitDy=0;exitPerimeter=0;entryX=0.076;entryY=0.76;entryDx=0;entryDy=0;entryPerimeter=0;strokeWidth=2;" edge="1" parent="1" source="6bcThNhCs2LeFuaMLMQY-6" target="6bcThNhCs2LeFuaMLMQY-10">
          <mxGeometry width="50" height="50" relative="1" as="geometry">
            <mxPoint x="410" y="330" as="sourcePoint" />
            <mxPoint x="460" y="280" as="targetPoint" />
          </mxGeometry>
        </mxCell>
        <mxCell id="6bcThNhCs2LeFuaMLMQY-60" value="" style="endArrow=none;html=1;rounded=0;exitX=0.995;exitY=0.429;exitDx=0;exitDy=0;exitPerimeter=0;entryX=0.077;entryY=0.773;entryDx=0;entryDy=0;entryPerimeter=0;strokeWidth=2;" edge="1" parent="1" source="6bcThNhCs2LeFuaMLMQY-6" target="6bcThNhCs2LeFuaMLMQY-9">
          <mxGeometry width="50" height="50" relative="1" as="geometry">
            <mxPoint x="390" y="350" as="sourcePoint" />
            <mxPoint x="440" y="300" as="targetPoint" />
          </mxGeometry>
        </mxCell>
        <mxCell id="6bcThNhCs2LeFuaMLMQY-61" value="" style="endArrow=none;html=1;rounded=0;entryX=0.081;entryY=0.788;entryDx=0;entryDy=0;exitX=1.011;exitY=0.567;exitDx=0;exitDy=0;exitPerimeter=0;entryPerimeter=0;strokeWidth=2;" edge="1" parent="1" source="6bcThNhCs2LeFuaMLMQY-6" target="6bcThNhCs2LeFuaMLMQY-8">
          <mxGeometry width="50" height="50" relative="1" as="geometry">
            <mxPoint x="400" y="360" as="sourcePoint" />
            <mxPoint x="450" y="310" as="targetPoint" />
          </mxGeometry>
        </mxCell>
        <mxCell id="6bcThNhCs2LeFuaMLMQY-64" value="&lt;font style=&quot;font-size: 16px;&quot;&gt;输入&lt;/font&gt;" style="text;strokeColor=none;align=center;fillColor=none;html=1;verticalAlign=middle;whiteSpace=wrap;rounded=0;strokeWidth=1;" vertex="1" parent="1">
          <mxGeometry x="310" y="384" width="60" height="30" as="geometry" />
        </mxCell>
        <mxCell id="6bcThNhCs2LeFuaMLMQY-65" value="&lt;font style=&quot;font-size: 16px;&quot;&gt;输出&lt;/font&gt;" style="text;strokeColor=none;align=center;fillColor=none;html=1;verticalAlign=middle;whiteSpace=wrap;rounded=0;strokeWidth=1;" vertex="1" parent="1">
          <mxGeometry x="470" y="384" width="60" height="30" as="geometry" />
        </mxCell>
      </root>
    </mxGraphModel>
  </diagram>
</mxfile>
